STARTFONT 2.1
FONT -cannam-garamond-medium-r-normal--14-140-75-75-p-90-iso8859-1
SIZE 12 83 83
FONTBOUNDINGBOX 17 17 0 -4
STARTPROPERTIES 17
POINT_SIZE 140
PIXEL_SIZE 14
RESOLUTION_X 75
RESOLUTION_Y 75
FONT_ASCENT 14
FONT_DESCENT 5
AVERAGE_WIDTH 90
SPACING "p"
_XMBDFED_INFO "Edited with xmbdfed 1.5."
FOUNDRY "cannam"
FAMILY_NAME "garamond"
WEIGHT_NAME "medium"
SLANT "r"
SETWIDTH_NAME "normal"
ADD_STYLE_NAME ""
CHARSET_REGISTRY "iso8859"
CHARSET_ENCODING "1"
ENDPROPERTIES
CHARS 190
STARTCHAR char32
ENCODING 32
SWIDTH 289 0
DWIDTH 4 0
BBX 0 0 0 0
BITMAP
ENDCHAR
STARTCHAR char33
ENCODING 33
SWIDTH 361 0
DWIDTH 5 0
BBX 2 11 2 0
BITMAP
80
C0
80
80
80
80
80
00
00
80
80
ENDCHAR
STARTCHAR char34
ENCODING 34
SWIDTH 506 0
DWIDTH 7 0
BBX 5 4 2 7
BITMAP
48
48
90
90
ENDCHAR
STARTCHAR char35
ENCODING 35
SWIDTH 867 0
DWIDTH 12 0
BBX 12 12 0 -3
BITMAP
0440
0440
0440
0880
7FF0
0880
1100
FFE0
1100
2200
2200
2200
ENDCHAR
STARTCHAR char115
ENCODING 36
SWIDTH 506 0
DWIDTH 7 0
BBX 7 11 0 -2
BITMAP
10
10
3C
54
70
3C
16
96
7C
10
10
ENDCHAR
STARTCHAR char47
ENCODING 37
SWIDTH 722 0
DWIDTH 10 0
BBX 9 12 1 -1
BITMAP
0100
6200
9200
9400
6400
0800
0800
1300
1480
2480
2300
4000
ENDCHAR
STARTCHAR char38
ENCODING 38
SWIDTH 795 0
DWIDTH 11 0
BBX 11 11 1 0
BITMAP
3800
6400
4400
3820
11C0
2880
4500
8200
8500
C980
7060
ENDCHAR
STARTCHAR char39
ENCODING 39
SWIDTH 361 0
DWIDTH 5 0
BBX 2 5 2 6
BITMAP
80
C0
40
40
80
ENDCHAR
STARTCHAR char41
ENCODING 40
SWIDTH 433 0
DWIDTH 6 0
BBX 4 14 1 -1
BITMAP
10
20
40
40
C0
80
80
80
80
C0
40
40
20
10
ENDCHAR
STARTCHAR char41
ENCODING 41
SWIDTH 361 0
DWIDTH 5 0
BBX 4 14 1 -1
BITMAP
80
40
20
20
30
10
10
10
10
30
20
20
40
80
ENDCHAR
STARTCHAR char42
ENCODING 42
SWIDTH 433 0
DWIDTH 6 0
BBX 5 5 1 7
BITMAP
20
A8
50
A8
20
ENDCHAR
STARTCHAR char43
ENCODING 43
SWIDTH 578 0
DWIDTH 8 0
BBX 7 7 1 0
BITMAP
10
10
10
FE
10
10
10
ENDCHAR
STARTCHAR char44
ENCODING 44
SWIDTH 361 0
DWIDTH 5 0
BBX 2 5 2 -2
BITMAP
80
C0
40
40
80
ENDCHAR
STARTCHAR char45
ENCODING 45
SWIDTH 578 0
DWIDTH 8 0
BBX 7 1 1 3
BITMAP
FE
ENDCHAR
STARTCHAR char46
ENCODING 46
SWIDTH 433 0
DWIDTH 6 0
BBX 2 2 2 0
BITMAP
C0
C0
ENDCHAR
STARTCHAR char47
ENCODING 47
SWIDTH 506 0
DWIDTH 7 0
BBX 6 12 1 -2
BITMAP
04
04
08
08
10
10
20
20
40
40
80
80
ENDCHAR
STARTCHAR char48
ENCODING 48
SWIDTH 650 0
DWIDTH 9 0
BBX 7 7 1 0
BITMAP
7C
C6
82
82
82
C6
7C
ENDCHAR
STARTCHAR char49
ENCODING 49
SWIDTH 361 0
DWIDTH 5 0
BBX 3 7 1 0
BITMAP
E0
40
40
40
40
40
E0
ENDCHAR
STARTCHAR char50
ENCODING 50
SWIDTH 578 0
DWIDTH 8 0
BBX 6 7 1 0
BITMAP
60
B0
30
20
20
44
FC
ENDCHAR
STARTCHAR char51
ENCODING 51
SWIDTH 506 0
DWIDTH 7 0
BBX 5 11 1 -4
BITMAP
60
B0
30
20
40
F0
18
18
10
20
C0
ENDCHAR
STARTCHAR char52
ENCODING 52
SWIDTH 650 0
DWIDTH 9 0
BBX 7 10 1 -3
BITMAP
08
18
18
28
48
48
FE
08
08
08
ENDCHAR
STARTCHAR char53
ENCODING 53
SWIDTH 433 0
DWIDTH 6 0
BBX 4 11 1 -4
BITMAP
70
40
40
60
30
10
10
10
30
20
C0
ENDCHAR
STARTCHAR char54
ENCODING 54
SWIDTH 506 0
DWIDTH 7 0
BBX 6 11 1 0
BITMAP
04
08
10
30
60
40
F0
88
88
C8
70
ENDCHAR
STARTCHAR char55
ENCODING 55
SWIDTH 578 0
DWIDTH 8 0
BBX 6 11 1 -4
BITMAP
FC
98
08
10
10
20
20
40
40
80
80
ENDCHAR
STARTCHAR char56
ENCODING 56
SWIDTH 578 0
DWIDTH 8 0
BBX 6 11 1 0
BITMAP
38
4C
84
C4
68
30
58
8C
84
C8
70
ENDCHAR
STARTCHAR char54
ENCODING 57
SWIDTH 578 0
DWIDTH 8 0
BBX 6 11 1 -4
BITMAP
38
4C
84
C4
7C
08
18
30
20
40
80
ENDCHAR
STARTCHAR char58
ENCODING 58
SWIDTH 433 0
DWIDTH 6 0
BBX 2 6 2 1
BITMAP
C0
C0
00
00
C0
C0
ENDCHAR
STARTCHAR char58
ENCODING 59
SWIDTH 433 0
DWIDTH 6 0
BBX 2 9 2 -2
BITMAP
80
80
00
00
80
C0
40
40
80
ENDCHAR
STARTCHAR char60
ENCODING 60
SWIDTH 650 0
DWIDTH 9 0
BBX 8 7 1 0
BITMAP
03
0C
30
C0
30
0C
03
ENDCHAR
STARTCHAR char61
ENCODING 61
SWIDTH 578 0
DWIDTH 8 0
BBX 7 4 1 2
BITMAP
FE
00
00
FE
ENDCHAR
STARTCHAR char62
ENCODING 62
SWIDTH 650 0
DWIDTH 9 0
BBX 8 7 1 0
BITMAP
C0
30
0C
03
0C
30
C0
ENDCHAR
STARTCHAR char63
ENCODING 63
SWIDTH 433 0
DWIDTH 6 0
BBX 5 12 1 0
BITMAP
80
E0
10
08
18
70
40
40
00
00
40
40
ENDCHAR
STARTCHAR char111
ENCODING 64
SWIDTH 939 0
DWIDTH 13 0
BBX 12 12 1 -2
BITMAP
0F00
30C0
6060
4FA0
9990
9090
9090
99B0
4EE0
6000
3000
0FC0
ENDCHAR
STARTCHAR char32
ENCODING 65
SWIDTH 795 0
DWIDTH 11 0
BBX 11 12 0 0
BITMAP
0400
0400
0E00
0A00
0A00
1300
1100
1F80
2180
2080
20C0
F1E0
ENDCHAR
STARTCHAR char33
ENCODING 66
SWIDTH 650 0
DWIDTH 9 0
BBX 8 12 1 0
BITMAP
FC
46
42
42
44
7C
42
41
41
41
43
FE
ENDCHAR
STARTCHAR char34
ENCODING 67
SWIDTH 722 0
DWIDTH 10 0
BBX 9 12 1 0
BITMAP
0F00
3080
6000
4000
8000
8000
8000
8000
4000
6000
3080
0F00
ENDCHAR
STARTCHAR char35
ENCODING 68
SWIDTH 795 0
DWIDTH 11 0
BBX 10 12 1 0
BITMAP
FC00
4300
4180
4080
4040
4040
4040
4040
4080
4180
4300
FC00
ENDCHAR
STARTCHAR char36
ENCODING 69
SWIDTH 650 0
DWIDTH 9 0
BBX 8 12 1 0
BITMAP
FC
42
40
40
40
7E
40
40
40
40
41
FE
ENDCHAR
STARTCHAR char102
ENCODING 70
SWIDTH 578 0
DWIDTH 8 0
BBX 7 12 1 0
BITMAP
FC
42
40
40
40
7E
40
40
40
40
40
E0
ENDCHAR
STARTCHAR char34
ENCODING 71
SWIDTH 795 0
DWIDTH 11 0
BBX 10 12 1 0
BITMAP
0F00
3080
6000
4000
8000
8000
81C0
8080
4080
6080
3080
0F00
ENDCHAR
STARTCHAR char104
ENCODING 72
SWIDTH 795 0
DWIDTH 11 0
BBX 10 12 1 0
BITMAP
E1C0
4080
4080
4080
4080
7F80
4080
4080
4080
4080
4080
E1C0
ENDCHAR
STARTCHAR char105
ENCODING 73
SWIDTH 433 0
DWIDTH 6 0
BBX 3 12 2 0
BITMAP
E0
40
40
40
40
40
40
40
40
40
40
E0
ENDCHAR
STARTCHAR char106
ENCODING 74
SWIDTH 361 0
DWIDTH 5 0
BBX 4 16 1 -4
BITMAP
70
20
20
20
20
20
20
20
20
20
20
20
20
40
40
80
ENDCHAR
STARTCHAR char107
ENCODING 75
SWIDTH 722 0
DWIDTH 10 0
BBX 10 12 1 0
BITMAP
E780
4200
4400
4800
5000
6000
7000
5800
4C00
4600
4300
E3C0
ENDCHAR
STARTCHAR char108
ENCODING 76
SWIDTH 650 0
DWIDTH 9 0
BBX 8 12 1 0
BITMAP
E0
40
40
40
40
40
40
40
40
40
41
FE
ENDCHAR
STARTCHAR char109
ENCODING 77
SWIDTH 1012 0
DWIDTH 14 0
BBX 13 12 1 0
BITMAP
C018
6010
6030
7030
5050
5850
4890
4C90
4510
4710
4210
E238
ENDCHAR
STARTCHAR char110
ENCODING 78
SWIDTH 1012 0
DWIDTH 14 0
BBX 13 12 1 0
BITMAP
C038
6010
7010
5810
4C10
4610
4310
4190
40D0
4070
4030
E010
ENDCHAR
STARTCHAR char111
ENCODING 79
SWIDTH 939 0
DWIDTH 13 0
BBX 12 12 1 0
BITMAP
0F00
30C0
6060
4020
8010
8010
8010
8010
4020
6060
30C0
0F00
ENDCHAR
STARTCHAR char112
ENCODING 80
SWIDTH 650 0
DWIDTH 9 0
BBX 8 12 1 0
BITMAP
FC
42
41
41
41
42
5C
40
40
40
40
E0
ENDCHAR
STARTCHAR char111
ENCODING 81
SWIDTH 939 0
DWIDTH 13 0
BBX 16 16 1 -4
BITMAP
0F00
30C0
6060
4020
8010
8010
8010
8010
4020
6060
30C0
0F00
0380
0080
0061
001E
ENDCHAR
STARTCHAR char112
ENCODING 82
SWIDTH 795 0
DWIDTH 11 0
BBX 10 12 1 0
BITMAP
FC00
4200
4300
4100
4100
4200
7C00
4C00
4400
4200
4100
E1C0
ENDCHAR
STARTCHAR char115
ENCODING 83
SWIDTH 650 0
DWIDTH 9 0
BBX 8 12 1 0
BITMAP
1E
22
40
60
30
1C
06
03
01
01
86
7C
ENDCHAR
STARTCHAR char116
ENCODING 84
SWIDTH 722 0
DWIDTH 10 0
BBX 11 12 0 0
BITMAP
FFE0
8420
0400
0400
0400
0400
0400
0400
0400
0400
0400
0E00
ENDCHAR
STARTCHAR char117
ENCODING 85
SWIDTH 867 0
DWIDTH 12 0
BBX 11 12 1 0
BITMAP
E0E0
4040
4040
4040
4040
4040
4040
4040
6040
2080
3080
1F00
ENDCHAR
STARTCHAR char109
ENCODING 86
SWIDTH 867 0
DWIDTH 12 0
BBX 13 12 0 0
BITMAP
F038
6010
2020
3020
1040
1840
0880
0C80
0500
0700
0200
0200
ENDCHAR
STARTCHAR char109
ENCODING 87
SWIDTH 1084 0
DWIDTH 15 0
BBX 17 12 0 0
BITMAP
EF3B80
661100
222200
332200
114400
19C400
088800
0CC800
055000
077000
022000
022000
ENDCHAR
STARTCHAR char109
ENCODING 88
SWIDTH 795 0
DWIDTH 11 0
BBX 11 12 0 0
BITMAP
F9E0
3080
1100
1900
0A00
0C00
0600
0A00
1300
1100
2180
F3E0
ENDCHAR
STARTCHAR char121
ENCODING 89
SWIDTH 722 0
DWIDTH 10 0
BBX 11 12 0 0
BITMAP
F1E0
2080
3080
1100
1900
0A00
0E00
0400
0400
0400
0400
0E00
ENDCHAR
STARTCHAR char122
ENCODING 90
SWIDTH 795 0
DWIDTH 11 0
BBX 10 12 1 0
BITMAP
7FC0
8180
0300
0200
0600
0C00
0800
1800
3000
2000
6040
FFC0
ENDCHAR
STARTCHAR char91
ENCODING 91
SWIDTH 361 0
DWIDTH 5 0
BBX 3 14 2 -1
BITMAP
E0
80
80
80
80
80
80
80
80
80
80
80
80
E0
ENDCHAR
STARTCHAR char47
ENCODING 92
SWIDTH 506 0
DWIDTH 7 0
BBX 6 12 1 -2
BITMAP
80
80
40
40
20
20
10
10
08
08
04
04
ENDCHAR
STARTCHAR char93
ENCODING 93
SWIDTH 361 0
DWIDTH 5 0
BBX 3 14 1 -1
BITMAP
E0
20
20
20
20
20
20
20
20
20
20
20
20
E0
ENDCHAR
STARTCHAR char94
ENCODING 94
SWIDTH 578 0
DWIDTH 8 0
BBX 7 4 1 8
BITMAP
10
28
44
82
ENDCHAR
STARTCHAR char95
ENCODING 95
SWIDTH 578 0
DWIDTH 8 0
BBX 9 1 0 -1
BITMAP
FF80
ENDCHAR
STARTCHAR char96
ENCODING 96
SWIDTH 361 0
DWIDTH 5 0
BBX 2 5 2 6
BITMAP
40
80
80
C0
40
ENDCHAR
STARTCHAR char32
ENCODING 97
SWIDTH 506 0
DWIDTH 7 0
BBX 6 7 1 0
BITMAP
30
58
08
18
68
C8
74
ENDCHAR
STARTCHAR char33
ENCODING 98
SWIDTH 578 0
DWIDTH 8 0
BBX 7 13 1 0
BITMAP
40
C0
40
40
40
40
58
64
42
42
42
44
38
ENDCHAR
STARTCHAR char34
ENCODING 99
SWIDTH 506 0
DWIDTH 7 0
BBX 6 7 1 0
BITMAP
38
4C
80
80
80
C4
78
ENDCHAR
STARTCHAR char35
ENCODING 100
SWIDTH 578 0
DWIDTH 8 0
BBX 7 13 1 0
BITMAP
04
0C
04
04
04
04
3C
4C
84
84
84
44
3E
ENDCHAR
STARTCHAR char36
ENCODING 101
SWIDTH 506 0
DWIDTH 7 0
BBX 6 7 1 0
BITMAP
38
44
FC
80
80
C4
78
ENDCHAR
STARTCHAR char102
ENCODING 102
SWIDTH 361 0
DWIDTH 5 0
BBX 6 13 1 0
BITMAP
1C
24
40
40
40
40
F8
40
40
40
40
40
E0
ENDCHAR
STARTCHAR char103
ENCODING 103
SWIDTH 506 0
DWIDTH 7 0
BBX 6 11 1 -4
BITMAP
7C
C8
88
98
70
80
F8
44
84
88
70
ENDCHAR
STARTCHAR char104
ENCODING 104
SWIDTH 578 0
DWIDTH 8 0
BBX 8 13 1 0
BITMAP
40
C0
40
40
40
40
5C
66
42
42
42
42
E7
ENDCHAR
STARTCHAR char105
ENCODING 105
SWIDTH 289 0
DWIDTH 4 0
BBX 3 11 1 0
BITMAP
40
40
00
00
40
C0
40
40
40
40
E0
ENDCHAR
STARTCHAR char106
ENCODING 106
SWIDTH 289 0
DWIDTH 4 0
BBX 2 15 1 -4
BITMAP
40
40
00
00
40
C0
40
40
40
40
40
40
40
40
80
ENDCHAR
STARTCHAR char107
ENCODING 107
SWIDTH 578 0
DWIDTH 8 0
BBX 8 13 1 0
BITMAP
40
C0
40
40
40
40
4E
48
50
70
48
44
E7
ENDCHAR
STARTCHAR char108
ENCODING 108
SWIDTH 289 0
DWIDTH 4 0
BBX 3 13 1 0
BITMAP
40
C0
40
40
40
40
40
40
40
40
40
40
E0
ENDCHAR
STARTCHAR char109
ENCODING 109
SWIDTH 867 0
DWIDTH 12 0
BBX 11 7 1 0
BITMAP
5980
EEC0
4440
4440
4440
4440
EEE0
ENDCHAR
STARTCHAR char110
ENCODING 110
SWIDTH 650 0
DWIDTH 9 0
BBX 8 7 1 0
BITMAP
5C
E6
42
42
42
42
E7
ENDCHAR
STARTCHAR char111
ENCODING 111
SWIDTH 578 0
DWIDTH 8 0
BBX 7 7 1 0
BITMAP
3C
46
82
82
82
C4
78
ENDCHAR
STARTCHAR char112
ENCODING 112
SWIDTH 578 0
DWIDTH 8 0
BBX 7 11 1 -4
BITMAP
DC
66
42
42
42
64
58
40
40
40
E0
ENDCHAR
STARTCHAR char113
ENCODING 113
SWIDTH 578 0
DWIDTH 8 0
BBX 7 11 1 -4
BITMAP
76
8C
84
84
84
CC
74
04
04
04
0E
ENDCHAR
STARTCHAR char114
ENCODING 114
SWIDTH 433 0
DWIDTH 6 0
BBX 5 7 1 0
BITMAP
58
E8
40
40
40
40
E0
ENDCHAR
STARTCHAR char115
ENCODING 115
SWIDTH 433 0
DWIDTH 6 0
BBX 6 7 0 0
BITMAP
3C
44
60
38
0C
8C
78
ENDCHAR
STARTCHAR char116
ENCODING 116
SWIDTH 433 0
DWIDTH 6 0
BBX 5 8 1 0
BITMAP
40
F8
40
40
40
40
60
38
ENDCHAR
STARTCHAR char117
ENCODING 117
SWIDTH 578 0
DWIDTH 8 0
BBX 7 7 1 0
BITMAP
CC
44
44
44
44
64
3E
ENDCHAR
STARTCHAR char118
ENCODING 118
SWIDTH 578 0
DWIDTH 8 0
BBX 8 7 0 0
BITMAP
E7
42
22
34
14
18
08
ENDCHAR
STARTCHAR char119
ENCODING 119
SWIDTH 722 0
DWIDTH 10 0
BBX 11 7 0 0
BITMAP
FEE0
4C40
2440
3280
1680
1B00
0900
ENDCHAR
STARTCHAR char120
ENCODING 120
SWIDTH 578 0
DWIDTH 8 0
BBX 7 7 1 0
BITMAP
EE
64
38
10
38
44
EE
ENDCHAR
STARTCHAR char121
ENCODING 121
SWIDTH 506 0
DWIDTH 7 0
BBX 8 11 0 -4
BITMAP
E7
42
22
34
14
18
08
10
30
60
40
ENDCHAR
STARTCHAR char122
ENCODING 122
SWIDTH 578 0
DWIDTH 8 0
BBX 7 7 1 0
BITMAP
FC
88
18
30
20
62
FC
ENDCHAR
STARTCHAR char123
ENCODING 123
SWIDTH 361 0
DWIDTH 5 0
BBX 4 15 1 -2
BITMAP
30
40
40
40
20
20
10
E0
10
20
20
40
40
40
30
ENDCHAR
STARTCHAR char124
ENCODING 124
SWIDTH 361 0
DWIDTH 5 0
BBX 1 15 3 -2
BITMAP
80
80
80
80
80
80
80
80
80
80
80
80
80
80
80
ENDCHAR
STARTCHAR char123
ENCODING 125
SWIDTH 361 0
DWIDTH 5 0
BBX 4 15 1 -2
BITMAP
C0
20
20
20
40
40
80
70
80
40
40
20
20
20
C0
ENDCHAR
STARTCHAR char126
ENCODING 126
SWIDTH 578 0
DWIDTH 8 0
BBX 7 3 1 9
BITMAP
62
92
8C
ENDCHAR
STARTCHAR char33
ENCODING 161
SWIDTH 361 0
DWIDTH 5 0
BBX 2 11 2 0
BITMAP
40
40
00
00
40
40
40
40
40
C0
40
ENDCHAR
STARTCHAR char34
ENCODING 162
SWIDTH 578 0
DWIDTH 8 0
BBX 7 11 1 -2
BITMAP
10
10
3C
56
90
90
90
D2
7C
10
10
ENDCHAR
STARTCHAR char30
ENCODING 163
SWIDTH 650 0
DWIDTH 9 0
BBX 7 12 1 0
BITMAP
1E
22
40
40
60
20
10
7C
10
20
78
86
ENDCHAR
STARTCHAR char164
ENCODING 164
SWIDTH 650 0
DWIDTH 9 0
BBX 9 9 1 -1
BITMAP
8080
5D00
2200
4100
4100
4100
2200
5D00
8080
ENDCHAR
STARTCHAR char121
ENCODING 165
SWIDTH 722 0
DWIDTH 10 0
BBX 11 12 0 0
BITMAP
F1E0
2080
3080
1100
1900
7FC0
0E00
0400
7FC0
0400
0400
0E00
ENDCHAR
STARTCHAR char124
ENCODING 166
SWIDTH 361 0
DWIDTH 5 0
BBX 1 12 2 0
BITMAP
80
80
80
80
80
00
00
80
80
80
80
80
ENDCHAR
STARTCHAR char167
ENCODING 167
SWIDTH 433 0
DWIDTH 6 0
BBX 4 12 2 -1
BITMAP
60
90
80
40
60
90
90
60
20
10
90
60
ENDCHAR
STARTCHAR char168
ENCODING 168
SWIDTH 506 0
DWIDTH 7 0
BBX 5 2 2 10
BITMAP
88
88
ENDCHAR
STARTCHAR char111
ENCODING 169
SWIDTH 939 0
DWIDTH 13 0
BBX 12 12 1 -2
BITMAP
0F00
30C0
6060
4F20
9890
9010
9010
9890
4F20
6060
30C0
0F00
ENDCHAR
STARTCHAR char170
ENCODING 170
SWIDTH 433 0
DWIDTH 6 0
BBX 5 5 1 7
BITMAP
60
10
70
90
68
ENDCHAR
STARTCHAR char171
ENCODING 171
SWIDTH 506 0
DWIDTH 7 0
BBX 6 5 1 1
BITMAP
24
48
90
48
24
ENDCHAR
STARTCHAR char172
ENCODING 172
SWIDTH 506 0
DWIDTH 7 0
BBX 6 2 1 2
BITMAP
FC
04
ENDCHAR
STARTCHAR char173
ENCODING 173
SWIDTH 361 0
DWIDTH 5 0
BBX 4 1 1 3
BITMAP
F0
ENDCHAR
STARTCHAR char111
ENCODING 174
SWIDTH 650 0
DWIDTH 9 0
BBX 8 8 1 5
BITMAP
3C
42
B9
AD
B9
AD
42
3C
ENDCHAR
STARTCHAR char175
ENCODING 175
SWIDTH 361 0
DWIDTH 5 0
BBX 4 1 1 10
BITMAP
F0
ENDCHAR
STARTCHAR char176
ENCODING 176
SWIDTH 361 0
DWIDTH 5 0
BBX 4 4 1 8
BITMAP
60
90
90
60
ENDCHAR
STARTCHAR char177
ENCODING 177
SWIDTH 433 0
DWIDTH 6 0
BBX 5 7 1 0
BITMAP
20
20
F8
20
20
00
F8
ENDCHAR
STARTCHAR char178
ENCODING 178
SWIDTH 433 0
DWIDTH 6 0
BBX 5 6 1 6
BITMAP
60
90
10
20
40
F8
ENDCHAR
STARTCHAR char179
ENCODING 179
SWIDTH 361 0
DWIDTH 5 0
BBX 4 6 1 6
BITMAP
F0
20
60
10
10
E0
ENDCHAR
STARTCHAR char180
ENCODING 180
SWIDTH 361 0
DWIDTH 5 0
BBX 3 3 1 9
BITMAP
60
40
80
ENDCHAR
STARTCHAR char181
ENCODING 181
SWIDTH 650 0
DWIDTH 9 0
BBX 8 10 1 -3
BITMAP
42
43
42
42
42
66
5C
40
40
80
ENDCHAR
STARTCHAR char182
ENCODING 182
SWIDTH 578 0
DWIDTH 8 0
BBX 7 13 1 0
BITMAP
7E
F4
F4
F4
74
14
14
14
14
14
14
14
14
ENDCHAR
STARTCHAR char183
ENCODING 183
SWIDTH 289 0
DWIDTH 4 0
BBX 2 2 2 2
BITMAP
C0
C0
ENDCHAR
STARTCHAR char184
ENCODING 184
SWIDTH 361 0
DWIDTH 5 0
BBX 3 2 2 -2
BITMAP
20
C0
ENDCHAR
STARTCHAR char185
ENCODING 185
SWIDTH 289 0
DWIDTH 4 0
BBX 2 6 2 6
BITMAP
40
C0
40
40
40
40
ENDCHAR
STARTCHAR char186
ENCODING 186
SWIDTH 361 0
DWIDTH 5 0
BBX 4 6 1 6
BITMAP
60
90
90
90
90
60
ENDCHAR
STARTCHAR char187
ENCODING 187
SWIDTH 506 0
DWIDTH 7 0
BBX 6 5 1 1
BITMAP
90
48
24
48
90
ENDCHAR
STARTCHAR char188
ENCODING 188
SWIDTH 867 0
DWIDTH 12 0
BBX 11 12 1 0
BITMAP
4100
C100
4200
4200
4400
4400
0840
08C0
1140
1240
23E0
2040
ENDCHAR
STARTCHAR char188
ENCODING 189
SWIDTH 867 0
DWIDTH 12 0
BBX 11 12 1 0
BITMAP
4100
C100
4200
4200
4400
4400
08C0
0920
1020
1040
2080
21E0
ENDCHAR
STARTCHAR char188
ENCODING 190
SWIDTH 867 0
DWIDTH 12 0
BBX 12 12 1 0
BITMAP
F080
2080
6100
1100
1200
E200
0420
0460
08A0
0920
11F0
1020
ENDCHAR
STARTCHAR char63
ENCODING 191
SWIDTH 433 0
DWIDTH 6 0
BBX 5 12 1 0
BITMAP
10
10
00
00
10
10
70
C0
80
40
38
08
ENDCHAR
STARTCHAR char32
ENCODING 192
SWIDTH 795 0
DWIDTH 11 0
BBX 11 13 0 0
BITMAP
1800
0400
0000
0E00
0A00
0A00
1300
1100
1F80
2180
2080
20C0
F1E0
ENDCHAR
STARTCHAR char32
ENCODING 193
SWIDTH 795 0
DWIDTH 11 0
BBX 11 13 0 0
BITMAP
0600
0800
0000
0E00
0A00
0A00
1300
1100
1F80
2180
2080
20C0
F1E0
ENDCHAR
STARTCHAR char32
ENCODING 194
SWIDTH 795 0
DWIDTH 11 0
BBX 11 13 0 0
BITMAP
0400
0A00
0000
0E00
0A00
0A00
1300
1100
1F80
2180
2080
20C0
F1E0
ENDCHAR
STARTCHAR char32
ENCODING 195
SWIDTH 795 0
DWIDTH 11 0
BBX 11 13 0 0
BITMAP
0D00
1600
0000
0E00
0A00
0A00
1300
1100
1F80
2180
2080
20C0
F1E0
ENDCHAR
STARTCHAR char32
ENCODING 196
SWIDTH 795 0
DWIDTH 11 0
BBX 11 13 0 0
BITMAP
1100
1100
0000
0E00
0A00
0A00
1300
1100
1F80
2180
2080
20C0
F1E0
ENDCHAR
STARTCHAR char32
ENCODING 197
SWIDTH 795 0
DWIDTH 11 0
BBX 11 13 0 0
BITMAP
0E00
1100
0E00
0000
0E00
0A00
1300
1100
1F80
2180
2080
20C0
F1E0
ENDCHAR
STARTCHAR char198
ENCODING 198
SWIDTH 1012 0
DWIDTH 14 0
BBX 14 12 0 0
BITMAP
07F0
0508
0900
0900
0900
11F0
1100
1F00
2100
2100
2104
F3F8
ENDCHAR
STARTCHAR char34
ENCODING 199
SWIDTH 722 0
DWIDTH 10 0
BBX 9 16 1 -4
BITMAP
0F00
3080
6000
4000
8000
8000
8000
8000
4000
6000
3080
0F00
0400
0600
0200
0C00
ENDCHAR
STARTCHAR char200
ENCODING 200
SWIDTH 650 0
DWIDTH 9 0
BBX 8 13 1 0
BITMAP
60
10
00
FC
42
40
40
7E
40
40
40
41
FE
ENDCHAR
STARTCHAR char200
ENCODING 201
SWIDTH 650 0
DWIDTH 9 0
BBX 8 13 1 0
BITMAP
0C
10
00
FC
42
40
40
7E
40
40
40
41
FE
ENDCHAR
STARTCHAR char200
ENCODING 202
SWIDTH 650 0
DWIDTH 9 0
BBX 8 13 1 0
BITMAP
10
28
00
FC
42
40
40
7E
40
40
40
41
FE
ENDCHAR
STARTCHAR char200
ENCODING 203
SWIDTH 650 0
DWIDTH 9 0
BBX 8 13 1 0
BITMAP
24
24
00
FC
42
40
40
7E
40
40
40
41
FE
ENDCHAR
STARTCHAR char204
ENCODING 204
SWIDTH 361 0
DWIDTH 5 0
BBX 4 13 0 0
BITMAP
C0
20
00
70
20
20
20
20
20
20
20
20
70
ENDCHAR
STARTCHAR char205
ENCODING 205
SWIDTH 361 0
DWIDTH 5 0
BBX 4 13 1 0
BITMAP
30
40
00
E0
40
40
40
40
40
40
40
40
E0
ENDCHAR
STARTCHAR char206
ENCODING 206
SWIDTH 361 0
DWIDTH 5 0
BBX 3 13 1 0
BITMAP
40
A0
00
E0
40
40
40
40
40
40
40
40
E0
ENDCHAR
STARTCHAR char207
ENCODING 207
SWIDTH 361 0
DWIDTH 5 0
BBX 5 13 0 0
BITMAP
88
88
00
70
20
20
20
20
20
20
20
20
70
ENDCHAR
STARTCHAR char35
ENCODING 208
SWIDTH 795 0
DWIDTH 11 0
BBX 11 12 0 0
BITMAP
7E00
2180
20C0
2040
2020
FC20
2020
2020
2040
20C0
2180
7E00
ENDCHAR
STARTCHAR char110
ENCODING 209
SWIDTH 1084 0
DWIDTH 15 0
BBX 13 13 1 0
BITMAP
0680
CB38
6010
7010
5810
4C10
4610
4310
4190
40D0
4070
4030
E010
ENDCHAR
STARTCHAR char111
ENCODING 210
SWIDTH 867 0
DWIDTH 12 0
BBX 11 13 1 0
BITMAP
1800
0400
0000
1F00
60C0
4040
8020
8020
8020
8020
4040
61C0
1F00
ENDCHAR
STARTCHAR char111
ENCODING 211
SWIDTH 867 0
DWIDTH 12 0
BBX 11 13 1 0
BITMAP
0300
0400
0000
1F00
60C0
4040
8020
8020
8020
8020
4040
60C0
1F00
ENDCHAR
STARTCHAR char111
ENCODING 212
SWIDTH 867 0
DWIDTH 12 0
BBX 11 13 1 0
BITMAP
0400
0A00
0000
1F00
60C0
4040
8020
8020
8020
8020
4040
60C0
1F00
ENDCHAR
STARTCHAR char111
ENCODING 213
SWIDTH 867 0
DWIDTH 12 0
BBX 11 13 1 0
BITMAP
0D00
1600
0000
1F00
60C0
4040
8020
8020
8020
8020
4040
60C0
1F00
ENDCHAR
STARTCHAR char111
ENCODING 214
SWIDTH 867 0
DWIDTH 12 0
BBX 11 13 1 0
BITMAP
1100
1100
0000
1F00
60C0
4040
8020
8020
8020
8020
4040
60C0
1F00
ENDCHAR
STARTCHAR char215
ENCODING 215
SWIDTH 433 0
DWIDTH 6 0
BBX 5 5 1 1
BITMAP
88
50
20
50
88
ENDCHAR
STARTCHAR char111
ENCODING 216
SWIDTH 939 0
DWIDTH 13 0
BBX 12 12 1 0
BITMAP
0F10
30E0
6060
40A0
8110
8210
8410
8810
5020
6060
70C0
8F00
ENDCHAR
STARTCHAR char117
ENCODING 217
SWIDTH 867 0
DWIDTH 12 0
BBX 11 13 1 0
BITMAP
1800
0400
0000
E0E0
4040
4040
4040
4040
4040
6040
2080
3080
1F00
ENDCHAR
STARTCHAR char117
ENCODING 218
SWIDTH 867 0
DWIDTH 12 0
BBX 11 13 1 0
BITMAP
0300
0400
0000
E0E0
4040
4040
4040
4040
4040
6040
2080
3080
1F00
ENDCHAR
STARTCHAR char117
ENCODING 219
SWIDTH 867 0
DWIDTH 12 0
BBX 11 13 1 0
BITMAP
0400
0A00
0000
E0E0
4040
4040
4040
4040
4040
6040
2080
3080
1F00
ENDCHAR
STARTCHAR char117
ENCODING 220
SWIDTH 867 0
DWIDTH 12 0
BBX 11 13 1 0
BITMAP
1100
1100
0000
E0E0
4040
4040
4040
4040
4040
6040
2080
3080
1F00
ENDCHAR
STARTCHAR char121
ENCODING 221
SWIDTH 795 0
DWIDTH 11 0
BBX 11 13 0 0
BITMAP
0300
0400
F1E0
2080
1100
1900
0A00
0E00
0400
0400
0400
0400
0E00
ENDCHAR
STARTCHAR char222
ENCODING 222
SWIDTH 578 0
DWIDTH 8 0
BBX 7 12 1 0
BITMAP
E0
40
40
78
44
42
42
44
78
40
40
E0
ENDCHAR
STARTCHAR char33
ENCODING 223
SWIDTH 650 0
DWIDTH 9 0
BBX 8 12 1 0
BITMAP
3C
66
42
42
44
4C
42
41
41
41
43
E6
ENDCHAR
STARTCHAR char32
ENCODING 224
SWIDTH 506 0
DWIDTH 7 0
BBX 6 10 1 0
BITMAP
20
10
00
30
58
08
18
68
C8
74
ENDCHAR
STARTCHAR char32
ENCODING 225
SWIDTH 506 0
DWIDTH 7 0
BBX 6 10 1 0
BITMAP
10
20
00
30
58
08
18
68
C8
74
ENDCHAR
STARTCHAR char32
ENCODING 226
SWIDTH 506 0
DWIDTH 7 0
BBX 6 10 1 0
BITMAP
20
50
00
30
58
08
18
68
C8
74
ENDCHAR
STARTCHAR char32
ENCODING 227
SWIDTH 506 0
DWIDTH 7 0
BBX 6 10 1 0
BITMAP
34
58
00
30
58
08
18
68
C8
74
ENDCHAR
STARTCHAR char32
ENCODING 228
SWIDTH 506 0
DWIDTH 7 0
BBX 6 10 1 0
BITMAP
48
48
00
30
58
08
18
68
C8
74
ENDCHAR
STARTCHAR char32
ENCODING 229
SWIDTH 506 0
DWIDTH 7 0
BBX 6 12 1 0
BITMAP
30
48
48
30
00
30
58
08
18
68
C8
74
ENDCHAR
STARTCHAR char230
ENCODING 230
SWIDTH 795 0
DWIDTH 11 0
BBX 10 7 1 0
BITMAP
3380
5C40
0FC0
1800
6800
CC40
7780
ENDCHAR
STARTCHAR char34
ENCODING 231
SWIDTH 506 0
DWIDTH 7 0
BBX 6 11 1 -4
BITMAP
38
4C
80
80
80
C4
78
10
18
08
30
ENDCHAR
STARTCHAR char36
ENCODING 232
SWIDTH 506 0
DWIDTH 7 0
BBX 6 10 1 0
BITMAP
20
10
00
38
44
FC
80
80
C4
78
ENDCHAR
STARTCHAR char36
ENCODING 233
SWIDTH 506 0
DWIDTH 7 0
BBX 6 10 1 0
BITMAP
08
10
00
38
44
FC
80
80
C4
78
ENDCHAR
STARTCHAR char36
ENCODING 234
SWIDTH 506 0
DWIDTH 7 0
BBX 6 10 1 0
BITMAP
10
28
00
38
44
FC
80
80
C4
78
ENDCHAR
STARTCHAR char36
ENCODING 235
SWIDTH 506 0
DWIDTH 7 0
BBX 6 10 1 0
BITMAP
48
48
00
38
44
FC
80
80
C4
78
ENDCHAR
STARTCHAR char105
ENCODING 236
SWIDTH 289 0
DWIDTH 4 0
BBX 3 10 1 0
BITMAP
80
40
00
40
C0
40
40
40
40
E0
ENDCHAR
STARTCHAR char105
ENCODING 237
SWIDTH 289 0
DWIDTH 4 0
BBX 3 10 1 0
BITMAP
20
40
00
40
C0
40
40
40
40
E0
ENDCHAR
STARTCHAR char105
ENCODING 238
SWIDTH 289 0
DWIDTH 4 0
BBX 3 10 1 0
BITMAP
40
A0
00
40
C0
40
40
40
40
E0
ENDCHAR
STARTCHAR char105
ENCODING 239
SWIDTH 289 0
DWIDTH 4 0
BBX 4 10 0 0
BITMAP
90
90
00
20
60
20
20
20
20
70
ENDCHAR
STARTCHAR char241
ENCODING 240
SWIDTH 506 0
DWIDTH 7 0
BBX 6 12 1 0
BITMAP
40
20
F8
10
08
38
4C
84
84
84
C4
78
ENDCHAR
STARTCHAR char110
ENCODING 241
SWIDTH 650 0
DWIDTH 9 0
BBX 8 10 1 0
BITMAP
1A
2C
00
5C
E6
42
42
42
42
E7
ENDCHAR
STARTCHAR char111
ENCODING 242
SWIDTH 578 0
DWIDTH 8 0
BBX 7 10 1 0
BITMAP
20
10
00
3C
46
82
82
82
C4
78
ENDCHAR
STARTCHAR char111
ENCODING 243
SWIDTH 578 0
DWIDTH 8 0
BBX 7 10 1 0
BITMAP
08
10
00
3C
46
82
82
82
C4
78
ENDCHAR
STARTCHAR char111
ENCODING 244
SWIDTH 578 0
DWIDTH 8 0
BBX 7 10 1 0
BITMAP
10
28
00
3C
46
82
82
82
C4
78
ENDCHAR
STARTCHAR char111
ENCODING 245
SWIDTH 578 0
DWIDTH 8 0
BBX 7 10 1 0
BITMAP
1A
2C
00
3C
46
82
82
82
C4
78
ENDCHAR
STARTCHAR char111
ENCODING 246
SWIDTH 578 0
DWIDTH 8 0
BBX 7 10 1 0
BITMAP
24
24
00
3C
46
82
82
82
C4
78
ENDCHAR
STARTCHAR char247
ENCODING 247
SWIDTH 578 0
DWIDTH 8 0
BBX 7 7 1 0
BITMAP
10
10
00
FE
00
10
10
ENDCHAR
STARTCHAR char111
ENCODING 248
SWIDTH 650 0
DWIDTH 9 0
BBX 9 9 0 -1
BITMAP
0080
1F00
2300
4500
4900
5100
6200
7C00
8000
ENDCHAR
STARTCHAR char117
ENCODING 249
SWIDTH 578 0
DWIDTH 8 0
BBX 7 10 1 0
BITMAP
20
10
00
CC
44
44
44
44
64
3E
ENDCHAR
STARTCHAR char117
ENCODING 250
SWIDTH 578 0
DWIDTH 8 0
BBX 7 10 1 0
BITMAP
10
20
00
CC
44
44
44
44
64
3E
ENDCHAR
STARTCHAR char117
ENCODING 251
SWIDTH 578 0
DWIDTH 8 0
BBX 7 10 1 0
BITMAP
10
28
00
CC
44
44
44
44
64
3E
ENDCHAR
STARTCHAR char117
ENCODING 252
SWIDTH 578 0
DWIDTH 8 0
BBX 7 10 1 0
BITMAP
48
48
00
CC
44
44
44
44
64
3E
ENDCHAR
STARTCHAR char121
ENCODING 253
SWIDTH 506 0
DWIDTH 7 0
BBX 8 14 0 -4
BITMAP
06
08
00
E7
42
22
34
14
18
08
10
30
60
40
ENDCHAR
STARTCHAR char222
ENCODING 254
SWIDTH 578 0
DWIDTH 8 0
BBX 7 12 1 -3
BITMAP
E0
40
40
58
64
42
42
44
78
40
40
E0
ENDCHAR
STARTCHAR char121
ENCODING 255
SWIDTH 506 0
DWIDTH 7 0
BBX 8 14 0 -4
BITMAP
24
24
00
E7
42
22
34
14
18
08
10
30
60
40
ENDCHAR
ENDFONT
